<svg width="217" height="19" viewBox="0 0 217 19" fill="none" xmlns="http://www.w3.org/2000/svg">
<path fill-rule="evenodd" clip-rule="evenodd" d="M154.493 15.0077C154.035 15.0077 153.597 14.8231 153.274 14.4945C152.95 14.1659 152.769 13.7202 152.769 13.2556V4.72475C152.769 4.26007 152.95 3.81442 153.274 3.48584C153.597 3.15725 154.035 2.97266 154.493 2.97266H162.351V0H150.341C149.407 0.00173831 148.511 0.379993 147.852 1.05174C147.192 1.72348 146.821 2.63382 146.821 3.58294V14.4367C146.82 14.907 146.911 15.3727 147.087 15.8074C147.264 16.242 147.523 16.6371 147.85 16.9699C148.177 17.3027 148.565 17.5667 148.992 17.7468C149.42 17.927 149.878 18.0197 150.341 18.0197H162.351V15.0077H154.493Z" fill="white"/>
<path fill-rule="evenodd" clip-rule="evenodd" d="M11.3069 18H17.1314L10.1704 8.3405L16.1822 0.00656128H10.8484L5.75352 7.074V0.111556H0V1.18119H0.942776V18H5.75352V10.342H5.78581L11.3069 18Z" fill="white"/>
<path fill-rule="evenodd" clip-rule="evenodd" d="M31.0793 11.615L34.5599 5.86657L38.0404 11.615H31.0793ZM41.9083 18H47.8427L36.0386 0.0459366H31.0341L32.0157 1.66679L21.3093 18H27.2437L29.0582 14.9748H40.0745L41.9083 18Z" fill="white"/>
<path fill-rule="evenodd" clip-rule="evenodd" d="M64.5737 10.2501H57.942V2.11302H64.5737C68.2221 2.11302 71.1796 3.9373 71.1796 6.18155C71.1796 8.42581 68.2221 10.2501 64.5737 10.2501ZM64.7739 0.0524979H53.1506V18H57.9485V12.3106H64.7804C71.3152 12.3106 76.6103 9.56763 76.6103 6.18155C76.6103 2.79548 71.3088 0.0524979 64.7739 0.0524979Z" fill="white"/>
<path fill-rule="evenodd" clip-rule="evenodd" d="M105.746 15.5589L97.6355 0H87.7815L79.6323 15.5589H75.6933V18H87.8784V15.5589H84.372L90.2547 4.33759L96.6281 15.5589H92.024V18H109.698V15.5589H105.746Z" fill="white"/>
<path fill-rule="evenodd" clip-rule="evenodd" d="M119.726 13.8921C119.404 13.8904 119.095 13.7589 118.867 13.5265C118.64 13.2941 118.512 12.9796 118.512 12.6518V5.35472C118.512 5.02692 118.64 4.71245 118.867 4.48005C119.095 4.24764 119.404 4.11621 119.726 4.11447H140.254V0H117.692C116.836 0 116.015 0.345684 115.409 0.961006C114.804 1.57633 114.463 2.41088 114.463 3.28108V14.6992C114.463 15.1301 114.547 15.5568 114.709 15.9548C114.871 16.3529 115.109 16.7146 115.409 17.0193C115.709 17.324 116.065 17.5657 116.457 17.7306C116.848 17.8954 117.268 17.9803 117.692 17.9803H140.254V13.8921H119.726Z" fill="white"/>
<path fill-rule="evenodd" clip-rule="evenodd" d="M186.237 11.5625C186.237 11.8457 186.182 12.1262 186.075 12.3877C185.968 12.6493 185.812 12.8869 185.614 13.0868C185.417 13.2868 185.183 13.4452 184.925 13.553C184.667 13.6607 184.391 13.7158 184.113 13.7149H175.195C174.915 13.7175 174.638 13.6638 174.379 13.5568C174.119 13.4498 173.884 13.2916 173.685 13.0915C173.486 12.8914 173.328 12.6532 173.221 12.3908C173.113 12.1283 173.058 11.8468 173.058 11.5625V6.56216C173.058 5.98957 173.281 5.44043 173.68 5.03555C174.078 4.63067 174.619 4.40321 175.182 4.40321H184.1C184.38 4.40148 184.657 4.45605 184.917 4.56377C185.176 4.67149 185.412 4.83024 185.61 5.03089C185.809 5.23154 185.967 5.47013 186.074 5.73292C186.182 5.99572 186.237 6.27753 186.237 6.56216V11.5822V11.5625ZM186.418 0.104996H172.89C171.595 0.104996 170.353 0.62767 169.438 1.55804C168.522 2.4884 168.008 3.75025 168.008 5.06599V13.039C168.01 14.3542 168.525 15.6151 169.44 16.545C170.355 17.475 171.595 17.9983 172.89 18H186.418C187.712 17.9983 188.953 17.475 189.868 16.545C190.783 15.6151 191.298 14.3542 191.3 13.039V5.06599C191.3 4.4145 191.173 3.76939 190.928 3.1675C190.683 2.5656 190.323 2.01871 189.87 1.55804C189.417 1.09737 188.878 0.731942 188.286 0.482629C187.694 0.233316 187.059 0.104996 186.418 0.104996Z" fill="white"/>
<path fill-rule="evenodd" clip-rule="evenodd" d="M211.795 0.00656128V6.27342H202.019V0.00656128H196.814V18H202.019V10.4732H211.795V18H217V0.00656128H211.795Z" fill="white"/>
</svg>
